<?xml version="1.0" encoding="UTF-8" standalone="no"?>
<svg
   version="1.1"
   width="172.58839"
   height="172.58839"
   id="svg4"
   viewBox="0 0 172.58839 172.58839"
   sodipodi:docname="cbf0e593602e93aa03db798ae9712dda.cdr"
   xmlns:inkscape="http://www.inkscape.org/namespaces/inkscape"
   xmlns:sodipodi="http://sodipodi.sourceforge.net/DTD/sodipodi-0.dtd"
   xmlns="http://www.w3.org/2000/svg"
   xmlns:svg="http://www.w3.org/2000/svg">
  <defs
     id="defs8" />
  <sodipodi:namedview
     id="namedview6"
     pagecolor="#ffffff"
     bordercolor="#666666"
     borderopacity="1.0"
     inkscape:pageshadow="2"
     inkscape:pageopacity="0.0"
     inkscape:pagecheckerboard="0" />
  <path
     d="m 86.2937,0 c 47.6516,0 86.2947,38.6431 86.2947,86.2937 0,47.6516 -38.6431,86.2947 -86.2947,86.2947 C 38.6431,172.5884 0,133.9453 0,86.2937 0,38.6431 38.6431,0 86.2937,0 Z M 61.4776,85.9809 c 0.307,28.8457 24.4407,52.1475 54.1594,52.1475 10.991,0 21.2127,-3.1908 29.7539,-8.6663 -11.863,15.4782 -30.8244,25.5063 -52.1905,25.5063 -35.9284,0 -65.0654,-28.3491 -65.0654,-63.3067 0,-1.9141 0.0948,-3.8107 0.2669,-5.6808 H 13.7322 c 0,-20.0269 17.3297,-36.2685 38.6988,-36.2685 21.1267,0 38.3019,15.876 38.6891,35.5881 h 19.1871 C 108.267,57.7032 85.2301,35.9352 57.1107,35.9352 c -6.4579,0 -12.6471,1.1467 -18.3767,3.2495 8.638,-5.2516 18.7756,-8.2743 29.6209,-8.2743 30.625,0 55.618,24.1171 57.0394,54.3901 h 13.0997 c -1.1115,-35.7553 -31.9476,-64.428 -69.8184,-64.428 -5.5253,0 -10.8972,0.611 -16.053,1.7646 8.1775,-3.1528 17.057,-4.8831 26.3441,-4.8831 38.5365,0 70.1293,29.7607 73.0571,67.5465 h 7.4248 c 0,20.0269 -17.3297,36.2686 -38.6988,36.2686 -21.1267,0 -38.3029,-15.8761 -38.69,-35.5882 z"
     style="fill:#009035;fill-rule:evenodd"
     id="path2" />
</svg>
